# xmcd CD database file
#
# Track frame offsets:
#	150
#	22912
#	40650
#	63412
#
# Disc length: 1146 seconds
#
# Revision: 1
# Processed by: cddbd v1.5.2PL0 Copyright (c) Steve Scherf et al.
# Submitted via: CDex 1.70beta2
#
DISCID=26047804
DTITLE=山下達郎 - 愛の灯〜スタンド・イン・ザ・ライト
DYEAR=1996
DGENRE=JPop
TTITLE0=愛の灯〜スタンド・イン・ザ・ライト
TTITLE1=こぬか雨 (LIVE VERSION)
TTITLE2=愛の灯〜スタンド・イン・ザ・ライト （オリジナル・カラオケ）
TTITLE3=愛の灯〜スタンド・イン・ザ・ライト （オリジナル・カラオケ〜DUET WITH TATS）
EXTD=YEAR: 1996
EXTT0=
EXTT1=
EXTT2=
EXTT3=
PLAYORDER=
